<?xml version="1.0" encoding="UTF-8" standalone="no"?>
<svg
   xmlns:dc="http://purl.org/dc/elements/1.1/"
   xmlns:cc="http://creativecommons.org/ns#"
   xmlns:rdf="http://www.w3.org/1999/02/22-rdf-syntax-ns#"
   xmlns:svg="http://www.w3.org/2000/svg"
   xmlns="http://www.w3.org/2000/svg"
   viewBox="0 0 793.70667 1122.52"
   height="1122.52"
   width="793.70667"
   xml:space="preserve"
   id="svg2"
   version="1.1"><metadata
     id="metadata8"><rdf:RDF><cc:Work
         rdf:about=""><dc:format>image/svg+xml</dc:format><dc:type
           rdf:resource="http://purl.org/dc/dcmitype/StillImage" /></cc:Work></rdf:RDF></metadata><defs
     id="defs6"><clipPath
       id="clipPath26"
       clipPathUnits="userSpaceOnUse"><path
         id="path24"
         d="M 0,841.89 H 595.28 V 0 H 0 Z" /></clipPath></defs><g
     transform="matrix(1.3333333,0,0,-1.3333333,0,1122.52)"
     id="g10"><text
       id="text14"
       style="font-variant:normal;font-weight:bold;font-stretch:condensed;font-size:51px;font-family:'PF Din Text Cond Pro';-inkscape-font-specification:PFDinTextCondPro-Bold;writing-mode:lr-tb;fill:#96989b;fill-opacity:1;fill-rule:nonzero;stroke:none"
       transform="matrix(1,0,0,-1,164.8145,673.2031)"><tspan
         id="tspan12"
         y="0"
         x="0 24.582001 48.144001 72.725998 85.628998 101.184 122.196 143.51401 167.17799 185.742 207.26401 230.673">Lanit-Tercom</tspan></text>
<text
       id="text18"
       style="font-variant:normal;font-weight:500;font-stretch:condensed;font-size:29px;font-family:'PF Din Text Cond Pro Medium';-inkscape-font-specification:PFDinTextCondPro-Medium;writing-mode:lr-tb;fill:#96989b;fill-opacity:1;fill-rule:nonzero;stroke:none"
       transform="matrix(1,0,0,-1,166.0732,643.1104)"><tspan
         id="tspan16"
         y="0"
         x="0 12.064 32.567001 45.210999 54.780998 62.582001 68.990997 81.055 93.844002 108.721 127.397 140.041 149.61099 162.255 168.664 180.728 193.517 200.36099 213.52699 221.328 227.621 240.41 253.489">smart soﬅware solutions</tspan></text>
<g
       id="g20"><g
         clip-path="url(#clipPath26)"
         id="g22"><g
           transform="translate(404.3816,716.9658)"
           id="g28"><path
             id="path30"
             style="fill:#3bade2;fill-opacity:1;fill-rule:evenodd;stroke:none"
             d="m 0,0 c -5.774,3.733 -11.863,6.924 -17.827,10.332 -2.647,1.512 -5.375,2.109 -8.362,1.94 -1.992,-0.112 -3.985,-0.063 -5.979,-0.294 -4.56,-0.525 -9.157,-0.678 -13.699,-1.38 -1.032,-0.16 -1.604,0.244 -1.815,1.238 -0.273,1.289 -0.488,2.596 -0.851,3.859 -0.324,1.128 0.062,1.651 1.1,2.1 4.947,2.14 9.973,4.105 14.737,6.646 0.911,0.486 1.842,0.659 2.852,0.75 3.504,0.314 6.788,-0.791 10.133,-1.494 0.846,-0.178 1.681,-0.299 2.474,0.033 3.048,1.277 6.183,2.372 8.299,5.212 0.689,0.925 0.57,1.15 -0.302,1.757 -2.872,2.002 -4.488,2.617 -7.148,5.164 -0.566,0.543 -1.992,2.502 -2.841,2.575 -3.099,0.263 -6.201,0.534 -9.287,0.926 -1.564,0.199 -1.79,1.026 -2.673,1.447 -0.411,0.196 -1.158,0.205 -1.891,0.205 -0.48,0 -1.748,-0.348 -1.902,-0.522 -1.26,-0.733 -2.264,-2.014 -3.835,-2.086 -6.103,-0.279 -12.183,-0.883 -18.28,-1.238 -5.183,-0.305 -10.262,-1.373 -15.399,-2.022 -3.55,-0.447 -7.068,-1.166 -10.588,-1.828 -4.857,-0.912 -9.722,-1.803 -14.553,-2.847 -7.177,-1.553 -14.28,-3.412 -21.367,-5.336 -8.663,-2.352 -27.214,-7.843 -27.927,-8.491 0.498,0 6.914,0.729 9.858,0.518 3.149,-0.227 6.302,-0.115 9.451,-0.414 5.052,-0.479 10.058,-1.202 15.032,-2.182 9.611,-1.891 18.423,-5.695 26.568,-11.089 4.153,-2.751 8.528,-4.981 13.367,-6.299 3.84,-1.047 7.715,-1.391 11.614,-0.75 3.568,0.586 7.118,1.304 10.666,2.027 8.36,1.706 16.696,3.516 24.987,5.525 1.256,0.305 2.341,0.26 3.462,-0.303 4.145,-2.079 8.401,-3.917 12.722,-5.581 2.771,-1.069 5.666,-1.735 8.656,-0.889 0.851,0.239 2.189,0.096 2.344,1.076 C 1.925,-0.906 0.718,-0.464 0,0" /></g><g
           transform="translate(280.7488,729.3603)"
           id="g32"><path
             id="path34"
             style="fill:#3bade2;fill-opacity:1;fill-rule:evenodd;stroke:none"
             d="m 0,0 c -5.399,0.804 -10.856,1.133 -16.328,1.357 -5.138,0.209 -10.233,-0.029 -15.284,-0.675 -5.207,-0.664 -10.365,-1.76 -15.425,-3.26 -3.031,-0.899 -14.856,-5.399 -15.017,-6.257 12.758,3.554 25.55,4.846 34.283,5.214 7.375,0.311 14.765,0.258 22.144,-0.356 5.089,-0.422 10.15,-1.076 15.225,-1.602 4.719,-0.49 16.573,-1.927 17.795,-2.01 C 23.26,-6.135 19.265,-4.43 15.075,-3.262 10.108,-1.877 5.08,-0.758 0,0" /></g><g
           transform="translate(239.9091,721.3408)"
           id="g36"><path
             id="path38"
             style="fill:#3bade2;fill-opacity:1;fill-rule:evenodd;stroke:none"
             d="m 0,0 c -5.804,-0.329 -11.489,-1.342 -17.179,-2.316 -7.33,-1.255 -14.4,-3.545 -21.335,-6.214 -3.277,-1.261 -11.11,-5.09 -10.94,-5.259 6.964,1.83 9.716,2.66 13.538,3.646 4.521,1.168 11.805,3.001 19.335,4.423 8.087,1.527 16.459,2.625 22.009,3.296 4.074,0.492 23.122,2.373 23.764,2.458 C 26.475,0.6 19.147,0.595 18.677,0.6 12.443,0.666 6.226,0.353 0,0" /></g></g></g></g></svg>