<svg width="54" height="54" viewBox="0 0 54 54" fill="none" xmlns="http://www.w3.org/2000/svg">
<circle cx="27" cy="27" r="27" fill="#F5F5F5"/>
<path fill-rule="evenodd" clip-rule="evenodd" d="M29.499 46.999H24.499L23.5 48H20.999C20.448 48 20 48.448 20 48.999V50H34V48.999C34 48.448 33.552 48 32.999 48H30.5L29.499 46.999Z" fill="#EEEEEE"/>
<circle cx="27" cy="27" r="27" fill="#F5F5F5"/>
<circle cx="27" cy="27" r="27" fill="#F5F5F5"/>
<g clip-path="url(#clip0)">
<path d="M12.0378 37.7089C12.0378 37.7089 11.5442 21.2473 30.9076 29.1227C31.7158 29.4513 32.1152 30.3622 31.8198 31.183C30.4 35.1293 25.3294 45.1246 12.0378 37.7089Z" fill="url(#paint0_linear)"/>
<path d="M31.8198 31.183C31.9835 30.7281 31.9331 30.2456 31.7185 29.8497C21.9787 32.4187 12.0378 37.7088 12.0378 37.7088C25.3294 45.1246 30.4 35.1293 31.8198 31.183Z" fill="url(#paint1_linear)"/>
<path d="M26.2449 33.5876C26.0807 33.5493 25.919 33.4991 25.7584 33.4515C25.598 33.4044 25.438 33.3577 25.2813 33.3022C25.1236 33.2506 24.9725 33.1752 24.8225 33.1041C24.6725 33.032 24.5176 32.9867 24.3541 32.9643C24.191 32.9446 24.0264 32.9318 23.8516 32.9353C24.0578 32.8375 24.2638 32.74 24.4702 32.642L25.484 32.1764C25.8216 32.0191 26.1657 31.8842 26.5058 31.7319C27.1901 31.4403 27.8806 31.1768 28.5919 30.9595L28.5616 30.7894L28.0001 30.8688L27.7171 30.9091C27.6235 30.9248 27.5324 30.9467 27.4394 30.9651C27.0724 31.0483 26.6963 31.1169 26.3343 31.2182C25.6011 31.4014 24.8809 31.6207 24.158 31.8362C24.02 31.8813 23.8819 31.9266 23.7436 31.9716C23.8093 31.87 23.8671 31.7642 23.9082 31.6479C23.9644 31.4917 24.0184 31.3317 24.0937 31.1839C24.1658 31.0339 24.2463 30.8883 24.3269 30.7416C24.407 30.5947 24.4862 30.4449 24.5758 30.302C24.7428 30.0055 24.9369 29.7258 25.1287 29.4322L25.0627 29.3625C24.7638 29.5484 24.4764 29.759 24.208 29.9933C24.0722 30.1093 23.9452 30.2341 23.8158 30.3588C23.6936 30.4889 23.5706 30.6199 23.4549 30.7571C23.3381 30.8936 23.2113 31.0253 23.0905 31.1631C22.9732 31.3027 22.881 31.4596 22.8234 31.6333C22.8126 31.6673 22.8022 31.7019 22.7925 31.7368C22.6861 32.116 22.3949 32.4156 22.0232 32.5457L22.0163 32.5481C21.3696 32.7747 20.7295 33.015 20.0872 33.2522C20.1762 33.1072 20.2474 32.9628 20.312 32.8161C20.3762 32.6641 20.416 32.5077 20.4306 32.3422C20.4459 32.1769 20.458 32.0083 20.4941 31.8463C20.5264 31.683 20.5678 31.522 20.6089 31.3598C20.6499 31.1974 20.6892 31.0328 20.7399 30.8719C20.8275 30.5429 20.9455 30.2234 21.0576 29.8913L20.9764 29.8402C20.7335 30.0951 20.5078 30.371 20.3067 30.6651C20.2043 30.8113 20.1124 30.964 20.0184 31.1171C19.9328 31.2735 19.8463 31.4313 19.7688 31.593C19.6896 31.7545 19.6 31.9136 19.5175 32.0773C19.4389 32.2419 19.3889 32.4167 19.3768 32.5993C19.3721 32.68 19.3706 32.7614 19.3735 32.8437C19.3872 33.2442 19.1261 33.6033 18.7484 33.7374C18.4243 33.8522 18.0995 33.9668 17.7762 34.0841C17.3663 34.2319 16.9653 34.4002 16.5717 34.5839C16.6454 34.4576 16.7074 34.3312 16.764 34.2031C16.8279 34.0511 16.8678 33.8947 16.8824 33.7292C16.8976 33.5637 16.91 33.3953 16.9459 33.2331C16.9782 33.0701 17.0196 32.909 17.0607 32.7468C17.1016 32.5844 17.1408 32.4196 17.1917 32.2587C17.2793 31.93 17.3975 31.6105 17.5094 31.2784L17.4282 31.2273C17.1853 31.4821 16.9598 31.758 16.7585 32.0521C16.656 32.1983 16.5642 32.351 16.4702 32.5041C16.3846 32.6605 16.2983 32.8183 16.2206 32.98C16.1414 33.1413 16.052 33.3006 15.9695 33.4641C15.8907 33.629 15.8407 33.8037 15.8286 33.9863C15.8184 34.1677 15.8232 34.3536 15.8595 34.5407C15.9009 34.7551 15.808 34.972 15.6186 35.081C15.1287 35.3636 14.2473 35.8818 13.7977 36.1893C13.1744 36.6223 12.564 37.0812 12 37.6314L12.0759 37.7867C12.8547 37.683 13.5937 37.5011 14.3196 37.2936C15.0449 37.0843 15.7542 36.844 16.4509 36.5776C16.4633 36.5729 16.4757 36.5683 16.4879 36.5637C16.7127 36.4778 16.9592 36.5632 17.0972 36.7601C17.1992 36.905 17.3189 37.0305 17.4452 37.1442C17.5826 37.2648 17.7413 37.3535 17.9132 37.4148C18.0871 37.4728 18.2628 37.5223 18.4327 37.581C18.6017 37.6412 18.7743 37.692 18.9453 37.7425C19.1199 37.7847 19.2927 37.8281 19.4684 37.8597C19.8186 37.9263 20.1731 37.9626 20.5249 37.9721L20.5465 37.8786C20.2328 37.7221 19.9237 37.579 19.6299 37.4075C19.4803 37.3292 19.3363 37.2402 19.1929 37.154C19.0493 37.0681 18.9062 36.9829 18.7683 36.89C18.6285 36.8006 18.5011 36.6898 18.3736 36.5833C18.2466 36.4763 18.1081 36.3933 17.9555 36.3307C17.7888 36.2656 17.6169 36.2092 17.4289 36.1678C17.784 36.0052 18.134 35.8304 18.4785 35.6443C18.7524 35.493 19.1239 35.2934 19.4511 35.1191C19.7987 34.9335 20.2319 34.9832 20.5136 35.2589C20.6512 35.3937 20.8076 35.5074 20.939 35.6253C21.0762 35.7461 21.2351 35.8348 21.407 35.8961C21.5809 35.9539 21.7566 36.0037 21.9265 36.0623C22.0955 36.1223 22.2679 36.1731 22.4391 36.2238C22.6137 36.2658 22.7865 36.3094 22.9622 36.3409C23.3122 36.4074 23.6669 36.444 24.0187 36.4535L24.0403 36.3599C23.7266 36.2035 23.4175 36.0603 23.1237 35.8888C22.9741 35.8105 22.8301 35.7216 22.6867 35.6353C22.5431 35.5492 22.4002 35.4642 22.2621 35.3713C22.1223 35.2817 21.9949 35.1709 21.8674 35.0644C21.7404 34.9574 21.6017 34.8746 21.449 34.812C21.1554 34.6972 20.8477 34.6076 20.4541 34.5879C21.1209 34.2604 21.7862 33.9263 22.4577 33.6095L22.4836 33.5964C22.8876 33.3947 23.3772 33.4163 23.7421 33.6827C23.8452 33.7579 23.9538 33.8221 24.064 33.8794C24.2271 33.9619 24.403 34.0082 24.5848 34.0243C24.7676 34.0369 24.9503 34.0409 25.1293 34.0553C25.3081 34.071 25.4878 34.0772 25.6661 34.0832C25.8458 34.0803 26.0239 34.0792 26.202 34.0657C26.5575 34.0427 26.9098 33.9892 27.2529 33.9104L27.2503 33.8144C26.9073 33.7414 26.5723 33.6801 26.2449 33.5876Z" fill="url(#paint2_linear)"/>
<path d="M30.7009 29.1314C24.8689 26.7107 20.8682 26.5804 18.1236 27.5645C19.0548 30.0804 20.7786 31.8833 21.226 32.3232L26.987 38.2028C29.5652 36.1031 30.9587 33.0148 31.5983 31.2001C31.889 30.376 31.4959 29.4613 30.7009 29.1314Z" fill="url(#paint3_linear)"/>
<path d="M40.9522 35.7869C40.9522 35.7869 27.0062 44.5469 23.9941 23.8616C23.8684 22.9983 24.4516 22.1927 25.3092 22.0316C29.4311 21.2583 40.6179 20.5705 40.9522 35.7869Z" fill="url(#paint4_linear)"/>
<path d="M25.3092 22.0319C24.8337 22.121 24.4432 22.4089 24.2107 22.7943C31.3571 29.8927 40.9522 35.7869 40.9522 35.7869C40.6179 20.5705 29.4311 21.2584 25.3092 22.0319Z" fill="url(#paint5_linear)"/>
<path d="M30.2053 25.6221C30.2555 25.7831 30.294 25.948 30.3343 26.1104C30.3748 26.2728 30.4155 26.4341 30.4472 26.5973C30.4823 26.7597 30.4938 26.9281 30.5084 27.0936C30.5224 27.2591 30.5615 27.4158 30.625 27.5682C30.6905 27.7187 30.7631 27.8671 30.8545 28.016C30.666 27.8877 30.4772 27.7594 30.2883 27.631L29.3736 26.9927C29.067 26.781 28.7765 26.5529 28.4729 26.3365C27.8749 25.894 27.2983 25.4318 26.7507 24.9284L26.6193 25.0406L26.9722 25.4849L27.1503 25.7084C27.2111 25.7811 27.2762 25.8488 27.339 25.9194C27.5965 26.194 27.8461 26.4838 28.1167 26.7445C28.6459 27.2841 29.1997 27.7941 29.7515 28.3083C29.8604 28.4045 29.9692 28.5008 30.0781 28.5972C29.9571 28.5919 29.8369 28.5957 29.7157 28.6191C29.5526 28.6497 29.3871 28.6842 29.2214 28.6942C29.0557 28.7079 28.8893 28.7123 28.722 28.7169C28.5548 28.7223 28.3857 28.7296 28.2169 28.7249C27.8766 28.7309 27.5372 28.705 27.187 28.6884L27.1602 28.7804C27.4717 28.9442 27.799 29.0853 28.1371 29.1982C28.3056 29.2566 28.4776 29.303 28.6508 29.3515C28.8247 29.3909 28.9999 29.4307 29.1769 29.461C29.3537 29.4927 29.5314 29.5351 29.7115 29.5696C29.8914 29.6002 30.0732 29.6002 30.252 29.5619C30.287 29.5542 30.3221 29.5455 30.3571 29.5362C30.7379 29.436 31.1437 29.5354 31.4441 29.79L31.4496 29.7947C31.9725 30.2378 32.5037 30.6682 33.0334 31.102C32.8634 31.0987 32.7028 31.1105 32.5435 31.1288C32.38 31.1505 32.2249 31.1954 32.0747 31.2667C31.9245 31.3372 31.7729 31.412 31.6151 31.4629C31.4581 31.5178 31.2981 31.5638 31.1372 31.6103C30.9766 31.6572 30.8147 31.7067 30.6503 31.7443C30.3224 31.8353 29.9872 31.8952 29.644 31.9667L29.6409 32.0627C29.9838 32.143 30.3359 32.1979 30.6914 32.2225C30.8693 32.2368 31.0474 32.2386 31.2271 32.2424C31.4054 32.2371 31.5851 32.2315 31.764 32.2165C31.9433 32.203 32.1258 32.1997 32.3085 32.188C32.4904 32.1725 32.6665 32.1271 32.83 32.0452C32.9019 32.0083 32.9732 31.9682 33.0427 31.9242C33.381 31.7098 33.8228 31.753 34.1297 32.0109C34.393 32.2322 34.656 32.4543 34.9209 32.6736C35.2561 32.9524 35.6041 33.2128 35.9619 33.4595C35.8154 33.4597 35.6751 33.4703 35.5362 33.4865C35.3725 33.5082 35.2176 33.5531 35.0673 33.6243C34.9169 33.6949 34.7656 33.7697 34.6076 33.8206C34.4505 33.8754 34.2905 33.9212 34.1299 33.9677C33.969 34.0148 33.8073 34.0644 33.6427 34.1018C33.3148 34.1929 32.9796 34.2529 32.6364 34.3241L32.6336 34.4202C32.9763 34.5007 33.3283 34.5556 33.6839 34.5801C33.862 34.5945 34.0398 34.5963 34.2195 34.6C34.3978 34.5945 34.5775 34.5892 34.7565 34.5742C34.9357 34.5607 35.1182 34.5573 35.3012 34.5456C35.4829 34.5301 35.659 34.4848 35.8227 34.4029C35.9842 34.3197 36.142 34.2215 36.2851 34.0954C36.4491 33.9511 36.6832 33.9215 36.873 34.0294C37.3646 34.3089 38.2578 34.8069 38.7508 35.0388C39.4397 35.3572 40.1444 35.651 40.9044 35.859L41 35.7149C40.5163 35.0956 39.9853 34.5505 39.4388 34.0297C38.891 33.5102 38.3248 33.0201 37.7423 32.5541C37.7321 32.5459 37.7217 32.5375 37.7115 32.5293C37.5237 32.3791 37.4726 32.1233 37.5724 31.9045C37.646 31.743 37.6936 31.5764 37.7275 31.41C37.762 31.2304 37.7582 31.0487 37.7239 30.8693C37.6859 30.6901 37.6398 30.5133 37.6042 30.3372C37.5704 30.1611 37.527 29.9865 37.4841 29.8135C37.4319 29.6413 37.3821 29.4705 37.3201 29.303C37.2002 28.9674 37.0524 28.6433 36.8823 28.3348L36.7907 28.3636C36.8146 28.7134 36.8475 29.0524 36.8484 29.3926C36.8568 29.561 36.8529 29.7303 36.8511 29.8978C36.8498 30.065 36.8486 30.2314 36.8385 30.3976C36.8321 30.5633 36.8011 30.7295 36.7736 30.8932C36.7455 31.0569 36.7444 31.2184 36.7677 31.3817C36.7958 31.5585 36.8343 31.7353 36.8938 31.9182C36.5736 31.6943 36.246 31.481 35.911 31.2782C35.6417 31.1184 35.2815 30.8992 34.9656 30.7056C34.6295 30.4996 34.4529 30.1009 34.5483 29.7186C34.5947 29.5314 34.6136 29.3391 34.6487 29.1661C34.6832 28.9864 34.6795 28.8046 34.6454 28.6253C34.6071 28.4461 34.5611 28.2693 34.5255 28.0932C34.4916 27.9169 34.4483 27.7425 34.4054 27.5695C34.3531 27.3974 34.3034 27.2266 34.2414 27.0589C34.1217 26.7235 33.9737 26.3993 33.8036 26.0909L33.712 26.1197C33.7361 26.4695 33.7688 26.8084 33.7697 27.1487C33.7781 27.3173 33.7741 27.4866 33.7724 27.6538C33.771 27.8211 33.7699 27.9877 33.7597 28.1536C33.7533 28.3194 33.7224 28.4855 33.6949 28.6492C33.667 28.8132 33.6657 28.9745 33.6889 29.138C33.7385 29.4491 33.8173 29.7599 33.9996 30.1093C33.3796 29.7 32.7546 29.2955 32.1413 28.8769L32.1172 28.8612C31.7384 28.6149 31.5094 28.1817 31.5543 27.7321C31.5669 27.6051 31.5674 27.479 31.5609 27.3549C31.5494 27.1724 31.5003 26.9974 31.4222 26.8325C31.3403 26.6684 31.2516 26.5088 31.1731 26.3473C31.0963 26.1852 31.0107 26.027 30.9255 25.8703C30.8321 25.7168 30.741 25.5637 30.6392 25.417C30.4392 25.122 30.2148 24.8452 29.973 24.5895L29.8914 24.6401C30.0024 24.9729 30.119 25.2926 30.2053 25.6221Z" fill="url(#paint6_linear)"/>
<path d="M40.9522 35.7869C40.6179 20.5705 29.4311 21.2584 25.3092 22.0319C24.4516 22.1927 23.8684 22.9983 23.9941 23.8616C27.0062 44.5469 40.9522 35.7869 40.9522 35.7869Z" fill="url(#paint7_linear)"/>
<path d="M21.3871 32.4055C21.3871 32.4055 9.13079 21.4051 28.1912 12.8224C28.9866 12.4642 29.9217 12.8036 30.312 13.5838C32.1888 17.334 35.9253 27.901 21.3871 32.4055Z" fill="url(#paint8_linear)"/>
<path d="M30.312 13.5836C30.0956 13.151 29.7115 12.8548 29.2769 12.7371C24.4165 21.5597 21.3871 32.4053 21.3871 32.4053C35.9254 27.901 32.1888 17.334 30.312 13.5836Z" fill="url(#paint9_linear)"/>
<path d="M28.2061 19.2782C28.0652 19.3706 27.9171 19.4529 27.772 19.5364C27.6271 19.62 27.483 19.7034 27.3348 19.7786C27.1886 19.8572 27.0297 19.9147 26.8746 19.9742C26.7191 20.0328 26.5794 20.1136 26.4505 20.2165C26.3237 20.3211 26.2009 20.4315 26.0827 20.5603C26.1542 20.3437 26.2257 20.1271 26.2973 19.91L26.6595 18.8551C26.7788 18.502 26.9184 18.1602 27.043 17.8088C27.304 17.1123 27.5897 16.4306 27.9233 15.7658L27.7793 15.6704L27.449 16.1317L27.283 16.3643C27.2299 16.443 27.1826 16.524 27.1321 16.6039C26.939 16.9269 26.729 17.2466 26.5527 17.5785C26.1794 18.2356 25.8411 18.908 25.4984 19.5802C25.436 19.7111 25.3732 19.8426 25.3106 19.9735C25.2825 19.8558 25.2455 19.7412 25.19 19.6311C25.1156 19.4826 25.0371 19.3332 24.982 19.1766C24.9231 19.0211 24.8731 18.8622 24.8227 18.7027C24.7716 18.5434 24.7178 18.3827 24.6762 18.2192C24.5769 17.8938 24.5083 17.5601 24.4282 17.219L24.3322 17.2185C24.2605 17.5632 24.2147 17.9166 24.199 18.2726C24.1893 18.4509 24.1919 18.6288 24.193 18.8087C24.2028 18.9868 24.2129 19.1662 24.2324 19.3445C24.2503 19.5233 24.2585 19.7058 24.2747 19.8884C24.2948 20.0698 24.3448 20.2446 24.4306 20.4061C24.4479 20.4375 24.4658 20.4689 24.4842 20.5001C24.6853 20.8386 24.7015 21.2561 24.5391 21.6148L24.5362 21.6214C24.2539 22.246 23.9861 22.8751 23.7147 23.5036C23.6711 23.3395 23.6158 23.1881 23.5543 23.0401C23.4883 22.8888 23.4025 22.752 23.2927 22.6273C23.1837 22.502 23.0702 22.377 22.9777 22.2392C22.8819 22.1033 22.7936 21.9622 22.7049 21.8203C22.6155 21.6787 22.5232 21.5367 22.442 21.3889C22.2644 21.0986 22.1146 20.7928 21.9515 20.4824L21.8584 20.5061C21.8754 20.8577 21.9194 21.2112 21.9933 21.5599C22.0285 21.7349 22.0759 21.9066 22.1217 22.0805C22.1759 22.2505 22.2305 22.4217 22.294 22.5894C22.3562 22.758 22.4095 22.9328 22.4712 23.1054C22.5361 23.276 22.6281 23.4328 22.7518 23.5676C22.8071 23.6264 22.8651 23.684 22.9266 23.7386C23.2257 24.005 23.3056 24.4417 23.1421 24.8075C23.0016 25.1217 22.8604 25.4354 22.7224 25.7505C22.5467 26.1494 22.3918 26.5556 22.2531 26.9673C22.2126 26.8266 22.1637 26.6948 22.1101 26.5655C22.0442 26.4142 21.9584 26.2773 21.8486 26.1527C21.7395 26.0275 21.626 25.9025 21.5336 25.7646C21.4378 25.6288 21.3495 25.4874 21.2608 25.3458C21.1714 25.2042 21.0793 25.0621 20.9979 24.9143C20.8202 24.6241 20.6705 24.3183 20.5074 24.0079L20.4142 24.0315C20.4313 24.3831 20.4753 24.7367 20.5494 25.0851C20.5846 25.2604 20.6317 25.4321 20.6775 25.6058C20.7317 25.7757 20.7864 25.9469 20.8499 26.1149C20.9121 26.2834 20.9656 26.458 21.0271 26.6306C21.0919 26.8012 21.1842 26.958 21.3077 27.0928C21.4322 27.2253 21.5701 27.3501 21.7305 27.453C21.9143 27.5709 22.007 27.7877 21.9555 28.0001C21.8221 28.5497 21.5889 29.5452 21.5013 30.083C21.3847 30.8331 21.2957 31.5913 21.3048 32.3792L21.4696 32.4314C21.932 31.7962 22.3102 31.1357 22.6608 30.4671C23.0095 29.7976 23.3253 29.1186 23.6131 28.4303C23.6182 28.4181 23.6233 28.4061 23.6284 28.394C23.7213 28.1721 23.9532 28.0526 24.191 28.0884C24.3663 28.1148 24.5397 28.1145 24.709 28.1015C24.8911 28.0853 25.065 28.0318 25.2278 27.9495C25.3898 27.8636 25.5469 27.7707 25.7066 27.6882C25.8668 27.6072 26.0226 27.5176 26.1772 27.4284C26.3283 27.3311 26.4788 27.2362 26.6228 27.1306C26.9127 26.9231 27.1837 26.6917 27.4333 26.4436L27.3804 26.3633C27.0507 26.4826 26.7339 26.6074 26.4071 26.7018C26.2473 26.756 26.0834 26.799 25.9221 26.8432C25.7608 26.8879 25.6004 26.9326 25.438 26.9684C25.2767 27.0078 25.1086 27.0235 24.9437 27.0423C24.7785 27.0605 24.6229 27.1036 24.4722 27.1709C24.3101 27.2466 24.1508 27.3322 23.991 27.4397C24.1182 27.0702 24.2333 26.6967 24.3364 26.3188C24.4158 26.016 24.5278 25.6093 24.6271 25.2524C24.7327 24.8727 25.0676 24.5933 25.4615 24.5798C25.6539 24.5732 25.8442 24.5382 26.0201 24.5247C26.2024 24.5086 26.3761 24.4548 26.539 24.3727C26.7009 24.2866 26.858 24.1937 27.0177 24.1112C27.1777 24.0302 27.3337 23.9406 27.4883 23.8517C27.6395 23.7543 27.7899 23.6592 27.934 23.5536C28.2238 23.3463 28.4948 23.1149 28.7444 22.8666L28.6915 22.7866C28.3619 22.9056 28.045 23.0304 27.718 23.1251C27.5583 23.1793 27.3945 23.222 27.233 23.2664C27.0717 23.3111 26.9115 23.3558 26.7491 23.3917C26.5879 23.4311 26.4197 23.4468 26.2549 23.4656C26.0896 23.4837 25.9341 23.5269 25.7834 23.5941C25.4977 23.7275 25.2205 23.8886 24.9347 24.1599C25.1579 23.4512 25.3749 22.7392 25.6088 22.0345L25.6174 22.0069C25.75 21.575 26.1035 21.2356 26.548 21.1553C26.6737 21.1325 26.7952 21.0984 26.9127 21.0581C27.085 20.9968 27.2397 20.9015 27.3768 20.7811C27.512 20.6574 27.641 20.528 27.7749 20.4083C27.9096 20.2897 28.0382 20.1638 28.1656 20.039C28.2875 19.907 28.4094 19.7773 28.5225 19.639C28.7513 19.3658 28.9555 19.0739 29.1351 18.771L29.0639 18.7067C28.7745 18.9047 28.499 19.1047 28.2061 19.2782Z" fill="url(#paint10_linear)"/>
</g>
<defs>
<linearGradient id="paint0_linear" x1="21.2419" y1="32.0126" x2="25.6722" y2="44.1285" gradientUnits="userSpaceOnUse">
<stop stop-color="#ACC130"/>
<stop offset="1" stop-color="#97A03B"/>
</linearGradient>
<linearGradient id="paint1_linear" x1="24.3327" y1="38.3525" x2="19.5085" y2="29.3642" gradientUnits="userSpaceOnUse">
<stop stop-color="#97A03B" stop-opacity="0"/>
<stop offset="1" stop-color="#575C55"/>
</linearGradient>
<linearGradient id="paint2_linear" x1="19.5058" y1="31.7806" x2="20.4902" y2="34.8668" gradientUnits="userSpaceOnUse">
<stop stop-color="#97A03B"/>
<stop offset="1" stop-color="#6C7D47"/>
</linearGradient>
<linearGradient id="paint3_linear" x1="28.7498" y1="34.054" x2="25.0902" y2="29.5597" gradientUnits="userSpaceOnUse">
<stop stop-color="#97A03B" stop-opacity="0"/>
<stop offset="1" stop-color="#575C55"/>
</linearGradient>
<linearGradient id="paint4_linear" x1="31.38" y1="30.7339" x2="39.585" y2="20.7789" gradientUnits="userSpaceOnUse">
<stop stop-color="#FF4B3E"/>
<stop offset="1" stop-color="#972E07"/>
</linearGradient>
<linearGradient id="paint5_linear" x1="35.2823" y1="24.8586" x2="29.9736" y2="33.5699" gradientUnits="userSpaceOnUse">
<stop stop-color="#972E07" stop-opacity="0"/>
<stop offset="1" stop-color="#582707"/>
</linearGradient>
<linearGradient id="paint6_linear" x1="32.059" y1="32.3484" x2="34.2219" y2="29.9369" gradientUnits="userSpaceOnUse">
<stop stop-color="#972E07"/>
<stop offset="1" stop-color="#582707"/>
</linearGradient>
<linearGradient id="paint7_linear" x1="32.7012" y1="29.8584" x2="26.2166" y2="27.1618" gradientUnits="userSpaceOnUse">
<stop stop-color="#972E07" stop-opacity="0"/>
<stop offset="1" stop-color="#582707"/>
</linearGradient>
<linearGradient id="paint8_linear" x1="23.6142" y1="21.8128" x2="35.4409" y2="26.9656" gradientUnits="userSpaceOnUse">
<stop stop-color="#FFE548"/>
<stop offset="1" stop-color="#FFB211"/>
</linearGradient>
<linearGradient id="paint9_linear" x1="30.3359" y1="23.95" x2="20.5016" y2="21.2403" gradientUnits="userSpaceOnUse">
<stop stop-color="#FFB211" stop-opacity="0"/>
<stop offset="0.214" stop-color="#FF951D" stop-opacity="0.215686"/>
<stop offset="0.5597" stop-color="#FF6D2F" stop-opacity="0.560784"/>
<stop offset="0.8338" stop-color="#FF543A" stop-opacity="0.835294"/>
<stop offset="1" stop-color="#FF4B3E"/>
</linearGradient>
<linearGradient id="paint10_linear" x1="22.4938" y1="22.8728" x2="27.1162" y2="25.4729" gradientUnits="userSpaceOnUse">
<stop stop-color="#FFB211"/>
<stop offset="1" stop-color="#FF4B3E"/>
</linearGradient>
<clipPath id="clip0">
<rect width="29" height="29" fill="white" transform="translate(12 12)"/>
</clipPath>
</defs>
</svg>
