<svg width="605" height="284" xmlns="http://www.w3.org/2000/svg">
 <metadata id="metadata8">image/svg+xml</metadata>
 <defs>
  <clipPath clipPathUnits="userSpaceOnUse" id="clipPath26">
   <path d="m0.75,841.14l595.28,0l0,-841.89l-595.28,0l0,841.89z" id="path24"/>
  </clipPath>
 </defs>
 <g>
  <title>background</title>
  <rect fill="none" id="canvas_background" height="286" width="607" y="-1" x="-1"/>
 </g>
 <g>
  <title>Layer 1</title>
  <g id="g10" transform="matrix(1.3333333,0,0,-1.3333333,0,1122.52) ">
   <text x="0.75" y="0.75" font-weight="bold" font-size="51px" font-family="'PF Din Text Cond Pro'" fill="#96989b" fill-rule="nonzero" transform="matrix(1,0,0,-1,164.8145,673.2031) " id="text14">
    <tspan x="0 24.582001 48.144001 72.725998 85.628998 101.184 122.196 143.51401 167.17799 185.742 207.26401 230.673" y="0" id="tspan12">Lanit-Tercom</tspan>
   </text>
   <text x="0.75" y="0.75" font-weight="500" font-size="29px" font-family="'PF Din Text Cond Pro Medium'" fill="#96989b" fill-rule="nonzero" transform="matrix(1,0,0,-1,166.0732,643.1104) " id="text18">
    <tspan x="0 12.064 32.567001 45.210999 54.780998 62.582001 68.990997 81.055 93.844002 108.721 127.397 140.041 149.61099 162.255 168.664 180.728 193.517 200.36099 213.52699 221.328 227.621 240.41 253.489" y="0" id="tspan16">smart soﬅware solutions</tspan>
   </text>
   <g id="g20">
    <g id="g22" clip-path="url(#clipPath26)">
     <g id="g28">
      <path fill="#3bade2" fill-rule="evenodd" d="m405.131592,716.21582c-5.774,3.733 -11.863,6.924 -17.827,10.332c-2.647,1.512 -5.375,2.109 -8.362,1.94c-1.992,-0.112 -3.985,-0.063 -5.979,-0.294c-4.56,-0.525 -9.157,-0.678 -13.699,-1.38c-1.032,-0.16 -1.604,0.244 -1.815,1.238c-0.273,1.289 -0.488,2.596 -0.851,3.859c-0.324,1.128 0.062,1.651 1.1,2.1c4.947,2.14 9.973,4.105 14.737,6.646c0.911,0.486 1.842,0.659 2.852,0.75c3.504,0.314 6.788,-0.791 10.133,-1.494c0.846,-0.178 1.681,-0.299 2.474,0.033c3.048,1.277 6.183,2.372 8.299,5.212c0.689,0.925 0.57,1.15 -0.302,1.757c-2.872,2.002 -4.488,2.617 -7.148,5.164c-0.566,0.543 -1.992,2.502 -2.841,2.575c-3.099,0.263 -6.201,0.534 -9.287,0.926c-1.564,0.199 -1.79,1.026 -2.673,1.447c-0.411,0.196 -1.158,0.205 -1.891,0.205c-0.48,0 -1.748,-0.348 -1.902,-0.522c-1.26,-0.733 -2.264,-2.014 -3.835,-2.086c-6.103,-0.279 -12.183,-0.883 -18.28,-1.238c-5.183,-0.305 -10.262,-1.373 -15.399,-2.022c-3.55,-0.447 -7.068,-1.166 -10.588,-1.828c-4.857,-0.912 -9.722,-1.803 -14.553,-2.847c-7.177,-1.553 -14.28,-3.412 -21.367,-5.336c-8.663,-2.352 -27.214,-7.843 -27.927,-8.491c0.498,0 6.914,0.729 9.858,0.518c3.149,-0.227 6.302,-0.115 9.451,-0.414c5.052,-0.479 10.058,-1.202 15.032,-2.182c9.611,-1.891 18.423,-5.695 26.568,-11.089c4.153,-2.751 8.528,-4.981 13.367,-6.299c3.84,-1.047 7.715,-1.391 11.614,-0.75c3.568,0.586 7.118,1.304 10.666,2.027c8.36,1.706 16.696,3.516 24.987,5.525c1.256,0.305 2.341,0.26 3.462,-0.303c4.145,-2.079 8.401,-3.917 12.722,-5.581c2.771,-1.069 5.666,-1.735 8.656,-0.889c0.851,0.239 2.189,0.096 2.344,1.076c0.129,0.809 -1.078,1.251 -1.796,1.715" id="path30"/>
     </g>
     <g id="g32">
      <path fill="#3bade2" fill-rule="evenodd" d="m281.49881,728.610291c-5.399,0.804 -10.856,1.133 -16.328,1.357c-5.138,0.209 -10.233,-0.029 -15.284,-0.675c-5.207,-0.664 -10.365,-1.76 -15.425,-3.26c-3.031,-0.899 -14.856,-5.399 -15.017,-6.257c12.758,3.554 25.55,4.846 34.283,5.214c7.375,0.311 14.765,0.258 22.144,-0.356c5.089,-0.422 10.15,-1.076 15.225,-1.602c4.719,-0.49 16.573,-1.927 17.795,-2.01c-4.133,1.454 -8.128,3.159 -12.318,4.327c-4.967,1.385 -9.995,2.504 -15.075,3.262" id="path34"/>
     </g>
     <g id="g36">
      <path fill="#3bade2" fill-rule="evenodd" d="m240.659103,720.59082c-5.804,-0.329 -11.489,-1.342 -17.179,-2.316c-7.33,-1.255 -14.4,-3.545 -21.335,-6.214c-3.277,-1.261 -11.11,-5.09 -10.94,-5.259c6.964,1.83 9.716,2.66 13.538,3.646c4.521,1.168 11.805,3.001 19.335,4.423c8.087,1.527 16.459,2.625 22.009,3.296c4.074,0.492 23.122,2.373 23.764,2.458c-2.717,0.566 -10.045,0.561 -10.515,0.566c-6.234,0.066 -12.451,-0.247 -18.677,-0.6" id="path38"/>
     </g>
    </g>
   </g>
  </g>
 </g>
</svg>