<svg width="54" height="54" viewBox="0 0 54 54" fill="none" xmlns="http://www.w3.org/2000/svg">
<path d="M27 0C12.15 0 0 12.15 0 27C0 41.85 12.15 54 27 54C41.85 54 54 41.85 54 27C54 12.15 41.85 0 27 0ZM27 9C31.95 9 36 13.95 36 20.25C36 26.55 31.95 31.5 27 31.5C22.05 31.5 18 26.55 18 20.25C18 13.95 22.05 9 27 9ZM41.85 43.875C38.025 47.25 32.625 49.5 27 49.5C21.375 49.5 15.975 47.25 12.15 43.875C11.25 42.975 11.025 41.625 11.925 40.725C14.4 37.8 17.775 35.775 21.375 34.65C23.175 35.55 24.975 36 27 36C29.025 36 30.825 35.55 32.625 34.65C36.45 35.775 39.6 37.8 42.075 40.725C42.975 41.625 42.975 42.975 41.85 43.875Z" fill="#EEEEEE"/>
</svg>
