<svg width="25" height="25" viewBox="0 0 25 25" fill="none" xmlns="http://www.w3.org/2000/svg">
<path d="M22.2031 10.6016C22.75 10.6016 23.1992 10.7773 23.5508 11.1289C23.9023 11.4414 24.0781 11.8906 24.0781 12.4766C24.0781 13.0234 23.9023 13.4727 23.5508 13.8242C23.1992 14.1367 22.75 14.293 22.2031 14.293H14.3516V22.1445C14.3516 22.6914 14.1758 23.1406 13.8242 23.4922C13.4727 23.8438 13.0234 24.0195 12.4766 24.0195C11.9297 24.0195 11.4805 23.8438 11.1289 23.4922C10.7773 23.1406 10.6016 22.6914 10.6016 22.1445V14.293H2.75C2.20312 14.293 1.75391 14.1172 1.40234 13.7656C1.08984 13.4141 0.933594 12.9844 0.933594 12.4766C0.933594 11.9297 1.08984 11.4805 1.40234 11.1289C1.75391 10.7773 2.20312 10.6016 2.75 10.6016H10.6016V2.69141C10.6016 2.14453 10.7773 1.69531 11.1289 1.34375C11.4805 0.992188 11.9297 0.816406 12.4766 0.816406C13.0234 0.816406 13.4727 0.992188 13.8242 1.34375C14.1758 1.69531 14.3516 2.14453 14.3516 2.69141V10.6016H22.2031Z" fill="#FF7415"/>
</svg>
