<svg width="54" height="54" viewBox="0 0 54 54" fill="none" xmlns="http://www.w3.org/2000/svg">
<circle cx="27" cy="27" r="27" fill="#F5F5F5"/>
<path d="M28.2973 41H24.7028C23.837 41 23.1351 40.2982 23.1351 39.4323V37.3158H29.865V39.4323C29.865 40.2982 29.1631 41 28.2973 41Z" fill="#426175"/>
<path d="M29.8518 39.1578H23.1482C22.6869 39.1578 22.3129 38.7838 22.3129 38.3225V32.6171C22.3129 32.1557 22.6869 31.7817 23.1482 31.7817H29.8518C30.3131 31.7817 30.6871 32.1557 30.6871 32.6171V38.3225C30.6871 38.7838 30.3132 39.1578 29.8518 39.1578Z" fill="#CDD6DF"/>
<path d="M29.8518 31.7817H27.5529V39.1578H29.8518C30.3132 39.1578 30.6872 38.7838 30.6872 38.3225V32.6171C30.6871 32.1557 30.3132 31.7817 29.8518 31.7817Z" fill="#ABB2BA"/>
<path d="M35.8164 21.3164C35.8164 16.1711 31.6453 12 26.5 12C21.3547 12 17.1836 16.1711 17.1836 21.3164C17.1836 23.2634 17.7808 25.1275 18.802 26.6926C20.2176 28.8622 21.2345 30.5441 21.4592 32.9217C21.5137 33.4989 21.9945 33.9418 22.5743 33.9418H30.4257C31.0054 33.9418 31.4863 33.4989 31.5409 32.9217C31.7655 30.5441 32.7824 28.8622 34.198 26.6926C35.2192 25.1275 35.8164 23.2634 35.8164 21.3164Z" fill="#FED066"/>
<path d="M26.5 12C25.9658 12 25.4424 12.0456 24.9329 12.1319C29.3319 12.8771 32.6821 16.7052 32.6821 21.3164C32.6821 23.2634 32.0849 25.1275 31.0637 26.6927C29.454 29.1597 28.3599 30.9962 28.3599 33.9418H30.4258C31.0055 33.9418 31.4864 33.4989 31.5409 32.9217C31.7655 30.5442 32.7825 28.8623 34.198 26.6927C35.2193 25.1275 35.8165 23.2634 35.8165 21.3164C35.8164 16.1711 31.6453 12 26.5 12Z" fill="#F5B556"/>
<path d="M31.7842 21.5181H31.4052C31.156 21.5181 30.9341 21.3567 30.8619 21.1183C30.77 20.8151 30.6477 20.5251 30.4985 20.2519C30.3779 20.031 30.4185 19.7568 30.5966 19.5788L30.8683 19.307C31.0906 19.0847 31.0906 18.7243 30.8683 18.502L30.4096 18.0433C30.1873 17.821 29.8269 17.821 29.6047 18.0433L29.3329 18.3151C29.1549 18.4931 28.8807 18.5338 28.6598 18.4132C28.3866 18.264 28.0967 18.1417 27.7934 18.0498C27.555 17.9776 27.3935 17.7556 27.3935 17.5065V17.1275C27.3935 16.8131 27.1387 16.5582 26.8243 16.5582H26.1756C25.8613 16.5582 25.6064 16.8131 25.6064 17.1275V17.4819C25.6064 17.7347 25.4402 17.9589 25.1971 18.0281C24.8843 18.117 24.5852 18.2381 24.3035 18.3877C24.0839 18.5043 23.8136 18.4615 23.6377 18.2857L23.3953 18.0433C23.173 17.821 22.8126 17.821 22.5903 18.0433L22.1317 18.502C21.9094 18.7243 21.9094 19.0847 22.1317 19.3069L22.3492 19.5245C22.5287 19.704 22.5689 19.9814 22.4445 20.2027C22.283 20.4899 22.1514 20.7963 22.0541 21.1175C21.9815 21.3568 21.7577 21.518 21.5077 21.518H21.2158C20.9015 21.518 20.6466 21.7728 20.6466 22.0873V22.7359C20.6466 23.0503 20.9014 23.3051 21.2158 23.3051H21.4849C21.7375 23.3051 21.9628 23.4705 22.0318 23.7135C22.126 24.0451 22.2564 24.3615 22.4185 24.658C22.5388 24.878 22.4964 25.1515 22.3191 25.3289L22.1317 25.5163C21.9094 25.7386 21.9094 26.099 22.1317 26.3213L22.5903 26.7799C22.8127 27.0023 23.1731 27.0023 23.3953 26.7799L23.5827 26.5925C23.76 26.4152 24.0335 26.3728 24.2536 26.4931C24.5502 26.6553 24.8665 26.7857 25.1981 26.8798C25.4411 26.9488 25.6065 27.174 25.6065 27.4267V27.6958C25.6065 28.0101 25.8613 28.265 26.1757 28.265H26.8243C27.1387 28.265 27.3936 28.0102 27.3936 27.6958V27.4039C27.3936 27.1539 27.5549 26.93 27.7941 26.8575C28.1154 26.7602 28.4217 26.6285 28.7089 26.4671C28.9302 26.3426 29.2076 26.3829 29.3871 26.5624L29.6047 26.7799C29.8269 27.0023 30.1874 27.0023 30.4096 26.7799L30.8683 26.3213C31.0906 26.0989 31.0906 25.7385 30.8683 25.5163L30.6259 25.2739C30.4501 25.0981 30.4074 24.8278 30.5239 24.6081C30.6735 24.3264 30.7947 24.0273 30.8836 23.7145C30.9527 23.4714 31.1769 23.3051 31.4297 23.3051H31.7841C32.0985 23.3051 32.3533 23.0503 32.3533 22.7359V22.0873C32.3534 21.773 32.0986 21.5181 31.7842 21.5181ZM26.5 25.1661C24.9788 25.1661 23.7456 23.9329 23.7456 22.4117C23.7456 20.8905 24.9788 19.6573 26.5 19.6573C28.0212 19.6573 29.2544 20.8905 29.2544 22.4117C29.2544 23.9329 28.0212 25.1661 26.5 25.1661Z" fill="#F2F2F2"/>
<path d="M30.6872 35.2104H22.3129V36.0735H30.6872V35.2104Z" fill="#ABB2BA"/>
<path d="M30.6872 36.8843H22.3129V37.7474H30.6872V36.8843Z" fill="#ABB2BA"/>
</svg>
